# xmcd
#
# Track frame offsets: 
#        150
#        27445
#        46672
#        67491
#        87377
#        105576
#        133372
#        150598
#        175603
#        194883
#
# Disc length: 2918 seconds
#
# Revision: 0
# Processed by: cddbd v1.5.2PL0 Copyright (c) Steve Scherf et al.
# Submitted via: ExactAudioCopy v1.0b3
#
DISCID=8f0b640a
DTITLE=Truong Vu, Phi Nhung - Ke Boi bac
DYEAR=1900
DGENRE=
TTITLE0=Truong Vu - Ke boi bac
TTITLE1=Truong Vu - Vong nhan cuoi
TTITLE2=Phi Nhung - Lac loi dia dang
TTITLE3=Truong Vu - Giot sau trinh nu
TTITLE4=Truong Vu - Tinh chi dep khi con dang do
TTITLE5=Truong Vu - Vay tay chao
TTITLE6=Truong Vu - Trach nguoi trong mong
TTITLE7=Phi Nhung - Ngay do xa roi
TTITLE8=Truong Vu - Sao em no danh quen
TTITLE9=Truong Vu - Giot le dai trang
EXTD=
EXTT0=
EXTT1=
EXTT2=
EXTT3=
EXTT4=
EXTT5=
EXTT6=
EXTT7=
EXTT8=
EXTT9=
PLAYORDER=
